<?xml version="1.0" standalone="no"?>
<!DOCTYPE svg PUBLIC "-//W3C//DTD SVG 20010904//EN"
 "http://www.w3.org/TR/2001/REC-SVG-20010904/DTD/svg10.dtd">
<svg version="1.0" xmlns="http://www.w3.org/2000/svg"
 width="1024.000000pt" height="1024.000000pt" viewBox="0 0 1024.000000 1024.000000"
 preserveAspectRatio="xMidYMid meet">
<metadata>
Created by potrace 1.14, written by Peter Selinger 2001-2017
</metadata>
<g transform="translate(0.000000,1024.000000) scale(0.100000,-0.100000)"
fill="#000000" stroke="none">
<path d="M0 5120 l0 -5120 5120 0 5120 0 0 5120 0 5120 -5120 0 -5120 0 0
-5120z m5165 3150 c440 -39 862 -185 1245 -430 137 -89 174 -149 131 -217 -35
-56 -60 -62 -275 -69 l-196 -6 -73 41 c-197 109 -462 202 -692 244 -173 32
-516 32 -690 0 -420 -76 -793 -261 -1130 -560 -38 -35 -74 -63 -80 -63 -24 0
-161 128 -182 170 -48 94 -19 197 81 282 389 336 940 563 1481 611 89 8 275 6
380 -3z m-250 -1258 l0 -597 -44 -110 c-67 -168 -83 -279 -78 -510 6 -223 22
-302 94 -463 25 -57 44 -104 42 -106 -2 -2 -35 -11 -73 -19 l-68 -16 -106 50
c-57 27 -105 49 -106 49 -1 0 0 -39 2 -86 l4 -85 90 -45 c106 -51 144 -60 198
-46 l40 10 0 -126 0 -125 -275 5 -275 5 0 -23 c0 -19 13 -30 68 -58 118 -59
192 -77 345 -83 l137 -6 0 -333 c0 -184 0 -337 0 -341 -1 -12 -167 -3 -249 13
-142 29 -275 109 -430 258 -255 247 -409 505 -520 875 l-38 125 -36 8 c-92 19
-168 86 -200 175 -21 59 -59 266 -87 482 -21 157 -21 162 -3 199 17 35 65 73
78 61 3 -4 21 -98 40 -210 45 -271 60 -337 79 -357 20 -23 96 -66 96 -55 0 4
-7 80 -15 168 -44 468 -22 1045 46 1248 71 211 209 357 454 480 207 104 513
183 715 186 l75 1 0 -598z m2246 291 c157 -54 278 -171 329 -319 17 -48 20
-84 20 -231 l0 -173 -126 0 -127 0 5 140 c5 137 5 142 -22 198 -29 61 -66 99
-134 135 l-41 22 -725 0 -725 0 -41 -22 c-45 -24 -104 -85 -104 -108 0 -12
-23 -15 -131 -15 l-132 0 7 48 c22 164 180 314 361 342 28 4 381 7 785 6 731
-1 735 -1 801 -23z m-4186 -166 c68 -34 185 -160 185 -200 0 -11 -20 -50 -44
-86 -140 -213 -247 -509 -292 -806 -21 -142 -24 -427 -5 -580 31 -254 104
-489 231 -741 l87 -175 -90 -76 c-104 -87 -145 -107 -200 -100 -81 11 -131 76
-225 297 -170 397 -249 863 -213 1270 13 152 57 384 102 539 79 274 225 584
303 641 49 36 110 43 161 17z m3267 -297 c222 -49 439 -186 575 -362 52 -68
125 -203 152 -279 60 -174 68 -461 18 -629 -92 -308 -306 -559 -571 -669 -150
-63 -214 -74 -396 -74 -200 0 -270 15 -435 97 -317 157 -514 459 -544 833 -16
203 11 363 89 530 78 166 159 265 303 374 120 91 261 154 407 184 101 20 299
18 402 -5z m1287 -673 c46 -224 39 -659 -15 -932 -41 -208 -126 -459 -221
-650 -84 -170 -128 -215 -208 -215 -48 0 -81 19 -191 111 l-83 69 49 78 c160
258 314 654 376 962 12 61 18 150 20 310 5 341 -2 326 152 322 l111 -3 10 -52z
m-3572 -1904 c237 -295 418 -425 678 -486 93 -22 117 -25 203 -26 l72 -1 0
-90 0 -90 73 0 c101 0 302 25 446 55 332 70 712 258 969 479 157 135 159 136
211 136 95 0 201 -112 201 -212 0 -73 -20 -110 -99 -189 -179 -178 -470 -362
-770 -484 -209 -85 -527 -162 -746 -180 -93 -8 -387 -7 -460 1 -190 20 -482
89 -665 156 -267 97 -662 335 -704 423 -44 92 2 172 158 277 23 16 49 28 58
28 9 0 77 -40 150 -89 l133 -90 3 240 c1 131 4 239 7 239 2 0 39 -44 82 -97z
m-824 -1477 c79 -29 78 -25 292 -541 87 -209 161 -384 165 -388 4 -4 15 14 25
40 26 69 224 541 295 702 54 123 65 140 102 164 53 34 94 42 148 27 87 -23
141 -113 119 -195 -6 -21 -58 -147 -116 -279 -169 -386 -307 -704 -354 -809
-68 -155 -122 -202 -226 -198 -79 3 -136 40 -173 112 -20 37 -294 677 -425
989 -86 204 -93 243 -56 304 44 71 126 100 204 72z m2374 -15 c85 -39 123
-141 81 -220 -46 -89 -29 -86 -454 -89 l-374 -3 0 -124 0 -125 238 -1 c130 0
261 -4 290 -8 93 -13 152 -78 152 -166 0 -64 -28 -109 -85 -139 -37 -20 -59
-21 -317 -24 l-278 -3 0 -217 c0 -206 -1 -219 -23 -256 -70 -124 -233 -121
-298 5 -19 39 -20 55 -17 632 l3 592 29 52 c28 50 49 70 106 100 19 10 122 13
465 13 411 0 443 -2 482 -19z m1248 0 c108 -50 142 -168 73 -256 -39 -50 -67
-55 -320 -55 -309 -1 -371 -8 -412 -49 -56 -56 -38 -140 39 -184 12 -8 96 -14
220 -17 189 -5 203 -7 255 -31 80 -38 156 -102 200 -170 158 -245 38 -583
-239 -669 -58 -18 -93 -20 -414 -20 -401 0 -407 1 -460 82 -24 37 -28 51 -25
99 5 66 31 108 85 135 34 17 68 19 362 21 358 3 357 2 388 68 22 47 5 105 -40
137 -30 22 -44 23 -232 29 -213 6 -242 12 -325 64 -240 151 -280 499 -82 700
54 55 113 91 190 116 50 16 95 18 377 18 291 1 324 -1 360 -18z"/>
<path d="M4075 6229 c-51 -12 -225 -98 -225 -111 0 -17 106 -112 166 -148 164
-98 344 -90 542 26 50 30 49 35 -29 111 -60 59 -128 99 -203 119 -57 15 -190
17 -251 3z"/>
<path d="M5896 6585 c-152 -29 -271 -92 -380 -201 -219 -218 -278 -560 -145
-844 126 -269 364 -424 649 -423 108 1 163 11 266 53 262 105 425 321 464 614
32 235 -67 484 -255 644 -60 52 -207 126 -290 147 -90 23 -217 27 -309 10z
m416 -261 c147 -50 214 -219 138 -351 -69 -120 -196 -161 -322 -105 -90 40
-138 117 -138 222 0 178 156 291 322 234z"/>
</g>
</svg>
